<?xml version="1.0" encoding="iso-8859-1"?>
<!-- Generator: Adobe Illustrator 22.0.1, SVG Export Plug-In . SVG Version: 6.00 Build 0)  -->
<svg version="1.1" id="Layer_1" xmlns="http://www.w3.org/2000/svg" xmlns:xlink="http://www.w3.org/1999/xlink" x="0px" y="0px"
	 width="512px" height="512px" viewBox="0 0 512 512" enable-background="new 0 0 512 512" xml:space="preserve">
<path fill="#DFA143" d="M486.403,298.674h-25.601v-85.329c-0.027-23.554-19.113-42.639-42.667-42.667H281.609
	c-23.554,0.027-42.639,19.113-42.667,42.667v85.329h-25.601c-14.128,0.016-25.581,11.468-25.597,25.601v85.329
	c0.066,22.456,17.55,41.003,39.964,42.393l-12.269,42.936h-79.755c-4.082-19.847-21.538-34.104-41.803-34.132H76.814V67.939
	c0.012-26.691,20.644-48.834,47.268-50.725s50.182,17.113,53.967,43.534l0.148,1.035c-11.011,4.535-17.406,16.097-15.39,27.831
	l2.328,13.777l-22.816,39.182c-3.066,5.269-3.09,11.773-0.066,17.066c3.027,5.293,8.648,8.57,14.746,8.597
	c0.977,0,1.953-0.082,2.914-0.246l81.865-13.835c6.527-1.105,11.828-5.887,13.601-12.265c1.769-6.379-0.309-13.207-5.336-17.515
	l-34.425-29.511l-2.328-13.777c-1.652-9.605-8.629-17.433-17.98-20.179l-0.367-2.574c-5.043-35.296-36.511-60.689-72.072-58.162
	S59.749,32.288,59.749,67.939v392.862H42.683v-8.531c0-4.715-3.82-8.535-8.535-8.535c-4.711,0-8.531,3.82-8.531,8.535v12.148
	c-15.527,6.785-25.569,22.105-25.601,39.049c0,4.711,3.82,8.531,8.535,8.531h494.917c4.711,0,8.531-3.82,8.531-8.531
	c0-4.715-3.82-8.535-8.531-8.535h-19.163l-12.269-42.936c22.413-1.391,39.897-19.937,39.964-42.393v-85.329
	C511.984,310.142,500.531,298.689,486.403,298.674z M238.934,137.328l-81.865,13.839l22.359-38.397l25.777-4.355l33.792,28.897
	L238.934,137.328z M197.889,92.341l-16.828,2.844l-1.426-8.414c-0.777-4.644,2.348-9.043,6.992-9.836
	c0.473-0.078,0.949-0.117,1.43-0.117c4.16,0.008,7.711,3.008,8.414,7.109L197.889,92.341z M281.609,187.744h136.527
	c14.132,0.016,25.585,11.468,25.601,25.601v86.903c-10.199,3.59-17.035,13.211-17.066,24.027v17.285
	c-7.344-5.644-16.339-8.722-25.601-8.754h-30.597l19.566-19.566c3.23-3.348,3.187-8.672-0.105-11.961
	c-3.293-3.293-8.613-3.34-11.961-0.105l-19.566,19.566v-39.132c0-4.715-3.824-8.535-8.535-8.535s-8.535,3.82-8.535,8.535v39.132
	l-19.566-19.566c-3.348-3.234-8.668-3.187-11.961,0.105c-3.293,3.289-3.336,8.613-0.105,11.961l19.566,19.566h-30.597
	c-9.261,0.031-18.257,3.109-25.601,8.754v-17.285c-0.031-10.816-6.867-20.437-17.066-24.027v-86.903
	C256.023,199.212,267.476,187.76,281.609,187.744z M401.069,349.871c14.132,0.016,25.585,11.468,25.601,25.601v8.531H273.074v-8.531
	c0.016-14.132,11.468-25.585,25.601-25.601H401.069z M413.186,452.27l24.382,42.663H262.179l24.378-42.663H413.186z M426.67,435.201
	H273.074v-34.132H426.67V435.201z M204.81,409.604v-85.329c0.004-4.711,3.824-8.527,8.531-8.535h34.136
	c4.707,0.008,8.527,3.824,8.531,8.535v110.926h-25.597C216.279,435.185,204.826,423.736,204.81,409.604z M18.547,494.933
	c3.625-10.218,13.289-17.054,24.136-17.066H93.88c10.843,0.012,20.511,6.847,24.136,17.066H18.547z M233.188,494.933l12.191-42.663
	h21.527l-24.378,42.663H233.188z M457.216,494.933l-24.378-42.663h21.527l12.191,42.663H457.216z M494.934,409.604
	c-0.016,14.132-11.468,25.581-25.601,25.597h-25.597V324.275c0.004-4.711,3.824-8.527,8.531-8.535h34.136
	c4.707,0.008,8.523,3.824,8.531,8.535V409.604z"/>
</svg>
