<?xml version="1.0" encoding="iso-8859-1"?>
<!-- Generator: Adobe Illustrator 22.0.1, SVG Export Plug-In . SVG Version: 6.00 Build 0)  -->
<svg version="1.1" id="Layer_1" xmlns="http://www.w3.org/2000/svg" xmlns:xlink="http://www.w3.org/1999/xlink" x="0px" y="0px"
	 width="363.618px" height="174.715px" viewBox="0 0 363.618 174.715" enable-background="new 0 0 363.618 174.715"
	 xml:space="preserve">
<g>
	<g>
		<path fill="#2D5F8C" d="M147.52,125.894h-22.545v6.387h15.461c-0.63,2.845-2.048,5.18-4.218,6.946
			c-2.319,1.888-5.229,2.844-8.648,2.844c-3.911,0-7.245-1.273-9.909-3.787c-2.656-2.506-4.003-5.674-4.003-9.418
			c0-3.71,1.319-6.872,3.92-9.396c2.606-2.528,5.85-3.81,9.641-3.81c6.023,0,10.132,2.28,12.561,6.969l0.191,0.369l6.562-2.17
			l-0.189-0.479c-1.401-3.551-3.876-6.346-7.355-8.307c-3.452-1.947-7.412-2.934-11.77-2.934c-5.839,0-10.836,1.931-14.852,5.738
			c-4.024,3.815-6.065,8.532-6.065,14.019c0,5.527,2.062,10.254,6.126,14.049c4.055,3.788,9.089,5.709,14.966,5.709
			c5.88,0,10.781-1.896,14.566-5.634c3.786-3.74,5.706-8.474,5.706-14.068c0-0.382-0.04-1.246-0.118-2.569L147.52,125.894z"/>
		<path fill="#2D5F8C" d="M173.22,109.109c-5.839,0-10.836,1.931-14.851,5.738c-4.024,3.815-6.065,8.55-6.065,14.075
			c0,5.49,2.041,10.197,6.066,13.992c4.016,3.789,9.013,5.71,14.85,5.71c5.838,0,10.844-1.921,14.879-5.71
			c4.044-3.794,6.095-8.503,6.095-13.992c0-5.488-2.05-10.214-6.093-14.048C184.064,111.049,179.058,109.109,173.22,109.109z
			 M182.949,138.287c-2.623,2.511-5.897,3.784-9.729,3.784c-3.831,0-7.095-1.272-9.7-3.783c-2.601-2.506-3.919-5.657-3.919-9.367
			c0-3.746,1.319-6.927,3.92-9.451c2.606-2.528,5.869-3.81,9.699-3.81c3.831,0,7.104,1.282,9.728,3.811
			c2.62,2.524,3.949,5.704,3.949,9.45C186.897,132.629,185.569,135.781,182.949,138.287L182.949,138.287z"/>
		<path fill="#2D5F8C" d="M226.802,128.36c1.107-0.459,2.131-1.216,3.057-2.263c1.343-1.521,2.025-3.449,2.025-5.733
			c0-3.153-1.121-5.72-3.33-7.63c-2.189-1.892-5.151-2.852-8.806-2.852h-19.16v37.969h19.57c4.12,0,7.329-0.969,9.537-2.88
			c2.228-1.929,3.359-4.542,3.359-7.767c0-2.581-0.774-4.719-2.298-6.352C229.62,129.635,228.295,128.8,226.802,128.36z
			 M207.827,131.617h11.863c1.784,0,3.243,0.471,4.337,1.402c1.086,0.923,1.614,2.111,1.614,3.632c0,1.561-0.52,2.778-1.59,3.721
			c-1.074,0.945-2.6,1.423-4.535,1.423h-11.687V131.617z M223.254,124.447c-1.054,0.96-2.47,1.447-4.209,1.447h-11.219v-9.957
			h11.277c1.707,0,3.107,0.453,4.163,1.347c1.045,0.886,1.553,2.003,1.553,3.41C224.82,122.258,224.308,123.486,223.254,124.447z"/>
		<polygon fill="#2D5F8C" points="246.687,131.949 267.817,131.949 267.817,125.673 246.687,125.673 246.687,116.213 
			269.573,116.213 269.573,109.881 239.448,109.881 239.448,147.85 269.632,147.85 269.632,141.519 246.687,141.519 		"/>
		<path fill="#2D5F8C" d="M296.628,126.234l-8.491-1.713c-1.617-0.311-2.807-0.81-3.538-1.481c-0.701-0.645-1.042-1.521-1.042-2.677
			c0-1.509,0.625-2.708,1.911-3.668c1.311-0.98,3.084-1.477,5.268-1.477c2.225,0,4.136,0.572,5.683,1.7
			c1.549,1.131,2.462,2.575,2.793,4.414l0.088,0.486l7.237-1.404l-0.107-0.488c-0.726-3.312-2.517-5.975-5.32-7.915
			c-2.783-1.927-6.233-2.903-10.258-2.903c-4.42,0-8.034,1.046-10.744,3.109c-2.748,2.095-4.143,4.89-4.143,8.311
			c0,5.5,3.458,9.042,10.287,10.527l8.542,1.656c1.897,0.386,3.249,0.924,4.02,1.6c0.735,0.645,1.092,1.573,1.092,2.837
			c0,1.578-0.651,2.812-1.991,3.772c-1.372,0.983-3.315,1.482-5.775,1.482c-2.581,0-4.755-0.576-6.46-1.712
			c-1.676-1.117-2.748-2.787-3.188-4.965l-0.097-0.476l-7.598,1.51l0.061,0.454c0.486,3.592,2.313,6.428,5.428,8.434
			c3.071,1.974,6.862,2.976,11.268,2.976c4.613,0,8.383-1.064,11.207-3.16c2.868-2.13,4.323-5.04,4.323-8.646
			C307.088,131.242,303.569,127.681,296.628,126.234z"/>
		<path fill="#2D5F8C" d="M333.363,109.881h-6.474l-17.722,37.969h7.869l3.864-8.613h18.451l3.863,8.613h7.87L333.363,109.881z
			 M336.454,132.851h-12.658l6.329-14.06L336.454,132.851z"/>
	</g>
	<g>
		<path fill="#2D5F8C" d="M118.186,160.044c-0.276,0.866-0.742,1.559-1.384,2.06c-0.649,0.504-1.383,0.748-2.245,0.748
			c-1.137,0-2.072-0.463-2.862-1.416c-0.792-0.957-1.194-2.153-1.194-3.556c0-1.402,0.401-2.598,1.194-3.556
			c0.788-0.952,1.724-1.414,2.862-1.414c0.862,0,1.625,0.251,2.266,0.747c0.646,0.498,1.109,1.191,1.377,2.059l0.084,0.272
			l1.21-0.452l-0.072-0.234c-0.347-1.134-0.96-2.05-1.821-2.722c-0.866-0.677-1.89-1.021-3.045-1.021
			c-1.496,0-2.776,0.625-3.804,1.857c-1.013,1.216-1.528,2.718-1.528,4.464c0,1.747,0.515,3.249,1.528,4.464
			c1.028,1.233,2.308,1.858,3.804,1.858c1.154,0,2.179-0.347,3.046-1.032c0.861-0.678,1.474-1.609,1.82-2.766l0.076-0.251
			l-1.233-0.36L118.186,160.044z"/>
		<path fill="#2D5F8C" d="M126.048,151.559c-1.489,0-2.762,0.626-3.785,1.858c-1.007,1.215-1.519,2.717-1.519,4.463
			c0,1.758,0.509,3.262,1.512,4.473c1.018,1.227,2.294,1.85,3.792,1.85c1.486,0,2.756-0.623,3.774-1.85
			c1.004-1.209,1.513-2.713,1.513-4.473c0-1.746-0.509-3.248-1.512-4.463C128.805,152.185,127.535,151.559,126.048,151.559z
			 M130.059,157.88c0,1.414-0.397,2.613-1.179,3.564c-0.78,0.947-1.706,1.408-2.832,1.408c-1.136,0-2.068-0.46-2.848-1.408
			c-0.783-0.951-1.179-2.15-1.179-3.564c0-1.402,0.397-2.599,1.18-3.557c0.78-0.951,1.711-1.413,2.847-1.413
			c1.126,0,2.052,0.462,2.831,1.413C129.662,155.281,130.059,156.478,130.059,157.88z"/>
		<polygon fill="#2D5F8C" points="140.714,161.409 134.206,151.752 133.129,151.752 133.129,164.01 134.421,164.01 134.421,154.419 
			140.832,163.891 140.911,164.01 141.99,164.01 141.99,151.752 140.714,151.752 		"/>
		<path fill="#2D5F8C" d="M150.835,158.356c-0.256-0.238-0.529-0.43-0.811-0.57c-0.273-0.136-0.597-0.25-0.951-0.334l-2.16-0.614
			c-0.516-0.138-0.911-0.345-1.172-0.617c-0.248-0.258-0.373-0.653-0.373-1.176c0-0.678,0.205-1.2,0.627-1.596
			c0.425-0.397,0.961-0.591,1.639-0.591c0.706,0,1.273,0.205,1.735,0.627c0.469,0.43,0.755,0.993,0.873,1.724l0.049,0.297
			l1.26-0.363l-0.04-0.231c-0.175-0.997-0.605-1.813-1.279-2.424c-0.68-0.616-1.544-0.928-2.568-0.928
			c-1.067,0-1.948,0.323-2.617,0.959c-0.672,0.638-1.013,1.493-1.013,2.543c0,1.585,0.826,2.618,2.455,3.072l2.276,0.63
			c0.593,0.162,1.023,0.378,1.275,0.643c0.239,0.251,0.359,0.661,0.359,1.222c0,0.703-0.212,1.242-0.649,1.647
			c-0.44,0.41-1.027,0.609-1.793,0.609c-0.818,0-1.479-0.232-2.018-0.709c-0.539-0.477-0.842-1.118-0.925-1.958l-0.031-0.311
			l-1.323,0.35l0.022,0.222c0.113,1.138,0.563,2.053,1.337,2.72c0.772,0.666,1.741,1.004,2.879,1.004
			c1.124,0,2.044-0.332,2.735-0.987c0.692-0.655,1.043-1.537,1.043-2.622c0-0.483-0.073-0.917-0.216-1.292
			C151.313,158.92,151.102,158.601,150.835,158.356z"/>
		<polygon fill="#2D5F8C" points="152.075,153.086 155.902,153.086 155.902,164.01 157.209,164.01 157.209,153.086 161.038,153.086 
			161.038,151.752 152.075,151.752 		"/>
		<path fill="#2D5F8C" d="M167.062,158.617c0.994,0,1.806-0.32,2.413-0.95c0.603-0.626,0.91-1.461,0.91-2.483
			s-0.307-1.857-0.91-2.482c-0.607-0.63-1.419-0.95-2.413-0.95h-4.746v12.258h1.292v-5.393h1.746l4.049,5.393h1.643l-4.079-5.393
			H167.062z M163.608,153.086h3.454c0.625,0,1.109,0.185,1.484,0.565c0.379,0.385,0.562,0.886,0.562,1.533
			c0,0.649-0.184,1.154-0.563,1.543c-0.375,0.387-0.86,0.575-1.483,0.575h-3.454V153.086z"/>
		<path fill="#2D5F8C" d="M179.174,158.686c0,1.269-0.285,2.295-0.85,3.049c-0.553,0.739-1.261,1.098-2.164,1.098
			c-0.915,0-1.63-0.359-2.188-1.099c-0.568-0.756-0.856-1.781-0.856-3.048v-6.934h-1.291v6.934c0,1.627,0.394,2.961,1.169,3.966
			c0.795,1.029,1.86,1.551,3.166,1.551c1.288,0,2.341-0.523,3.129-1.552c0.77-1.004,1.161-2.338,1.161-3.965v-6.934h-1.276V158.686z
			"/>
		<path fill="#2D5F8C" d="M191.073,160.044c-0.276,0.867-0.742,1.56-1.384,2.061c-0.639,0.496-1.395,0.747-2.245,0.747
			c-1.135,0-2.071-0.463-2.861-1.416c-0.793-0.957-1.195-2.153-1.195-3.556c0-1.402,0.402-2.598,1.195-3.556
			c0.788-0.952,1.724-1.414,2.861-1.414c0.875,0,1.617,0.244,2.267,0.747c0.646,0.499,1.109,1.192,1.376,2.058l0.084,0.273
			l1.21-0.452l-0.072-0.234c-0.346-1.133-0.958-2.049-1.82-2.722c-0.867-0.677-1.891-1.021-3.046-1.021
			c-1.496,0-2.776,0.625-3.804,1.857c-1.013,1.216-1.527,2.718-1.527,4.464c0,1.747,0.514,3.249,1.527,4.464
			c1.028,1.233,2.308,1.858,3.804,1.858c1.153,0,2.178-0.347,3.047-1.032c0.862-0.68,1.474-1.61,1.819-2.766l0.076-0.251
			l-1.234-0.36L191.073,160.044z"/>
		<polygon fill="#2D5F8C" points="192.663,153.086 196.491,153.086 196.491,164.01 197.798,164.01 197.798,153.086 201.627,153.086 
			201.627,151.752 192.663,151.752 		"/>
		<path fill="#2D5F8C" d="M207.269,151.559c-1.488,0-2.761,0.626-3.784,1.858c-1.008,1.215-1.519,2.717-1.519,4.463
			c0,1.76,0.509,3.264,1.512,4.473c1.018,1.227,2.293,1.85,3.791,1.85c1.487,0,2.757-0.623,3.776-1.85
			c1.003-1.21,1.512-2.715,1.512-4.473c0-1.745-0.509-3.247-1.512-4.463C210.027,152.185,208.757,151.559,207.269,151.559z
			 M211.281,157.88c0,1.414-0.397,2.613-1.18,3.564c-0.78,0.947-1.706,1.408-2.832,1.408c-1.137,0-2.068-0.46-2.848-1.408
			c-0.782-0.951-1.178-2.15-1.178-3.564c0-1.402,0.397-2.598,1.179-3.557c0.78-0.951,1.711-1.413,2.847-1.413
			c1.126,0,2.052,0.462,2.831,1.413C210.884,155.281,211.281,156.477,211.281,157.88z"/>
		<path fill="#2D5F8C" d="M219.097,158.617c0.992,0,1.804-0.32,2.413-0.95c0.603-0.626,0.91-1.461,0.91-2.483
			s-0.306-1.857-0.91-2.482c-0.609-0.63-1.421-0.95-2.413-0.95h-4.746v12.258h1.292v-5.393h1.747l4.049,5.393h1.643l-4.079-5.393
			H219.097z M215.643,153.086h3.454c0.624,0,1.108,0.185,1.484,0.565c0.379,0.385,0.562,0.886,0.562,1.533
			c0,0.649-0.184,1.154-0.563,1.543c-0.376,0.387-0.861,0.575-1.483,0.575h-3.454V153.086z"/>
		<path fill="#2D5F8C" d="M227.787,151.752l-4.676,12.258h1.371l1.217-3.204h5.226l1.202,3.204h1.371l-4.676-12.258H227.787z
			 M230.417,159.472h-4.21l2.105-5.571L230.417,159.472z"/>
		<path fill="#2D5F8C" d="M246.162,158.563v-0.965h-1.188v0.965c0,0.745-0.106,1.42-0.314,2.013l-1.983-1.941
			c-0.922-0.871-1.579-1.592-1.951-2.144c-0.355-0.525-0.534-1.094-0.534-1.692c0-0.607,0.158-1.079,0.485-1.447
			c0.315-0.357,0.716-0.53,1.225-0.53c0.502,0,0.903,0.162,1.225,0.496c0.327,0.337,0.525,0.89,0.588,1.643l0.027,0.316l1.194-0.315
			l-0.021-0.221c-0.093-0.99-0.408-1.773-0.936-2.327c-0.541-0.567-1.234-0.855-2.062-0.855c-0.87,0-1.592,0.31-2.148,0.921
			c-0.546,0.602-0.823,1.382-0.823,2.319c0,0.819,0.258,1.62,0.766,2.387c-0.511,0.323-0.94,0.75-1.275,1.273
			c-0.392,0.612-0.591,1.319-0.591,2.1c0,1.084,0.35,1.972,1.04,2.639c0.691,0.667,1.612,1.006,2.737,1.006
			c1.38,0,2.496-0.546,3.322-1.624l1.882,1.843l0.719-1.043l-1.946-1.897C245.972,160.645,246.162,159.665,246.162,158.563z
			 M244.057,161.708c-0.638,0.828-1.436,1.231-2.435,1.231c-0.775,0-1.378-0.213-1.842-0.652c-0.464-0.436-0.688-1.002-0.688-1.728
			c0-1.062,0.449-1.853,1.372-2.41c0.382,0.424,0.82,0.867,1.303,1.318L244.057,161.708z"/>
		<rect x="252.503" y="151.752" fill="#2D5F8C" width="1.292" height="12.258"/>
		<polygon fill="#2D5F8C" points="263.653,161.409 257.146,151.752 256.069,151.752 256.069,164.01 257.361,164.01 257.361,154.419 
			263.772,163.891 263.851,164.01 264.93,164.01 264.93,151.752 263.653,151.752 		"/>
		<polygon fill="#2D5F8C" points="272.715,161.777 268.402,151.913 268.332,151.752 267.222,151.752 267.222,164.01 268.484,164.01 
			268.484,155.325 272.271,164.01 273.16,164.01 276.933,155.329 276.933,164.01 278.195,164.01 278.195,151.752 277.098,151.752 		
			"/>
		<path fill="#2D5F8C" d="M285.292,151.559c-1.487,0-2.761,0.626-3.784,1.858c-1.008,1.216-1.52,2.718-1.52,4.463
			c0,1.759,0.509,3.263,1.513,4.472c1.017,1.228,2.292,1.851,3.791,1.851c1.487,0,2.757-0.623,3.776-1.85
			c1.003-1.21,1.512-2.715,1.512-4.473c0-1.745-0.509-3.247-1.512-4.463C288.05,152.185,286.78,151.559,285.292,151.559z
			 M285.292,162.852c-1.136,0-2.068-0.46-2.848-1.408c-0.782-0.95-1.178-2.149-1.178-3.564c0-1.403,0.397-2.6,1.179-3.557
			c0.78-0.951,1.711-1.413,2.847-1.413c1.126,0,2.052,0.462,2.831,1.413c0.784,0.958,1.181,2.154,1.181,3.557
			c0,1.414-0.397,2.613-1.18,3.564C287.344,162.392,286.418,162.852,285.292,162.852z"/>
		<path fill="#2D5F8C" d="M298.944,157.731c0.268-0.172,0.508-0.412,0.719-0.721c0.371-0.544,0.559-1.211,0.559-1.983
			c0-0.974-0.286-1.771-0.848-2.367c-0.569-0.603-1.363-0.908-2.357-0.908h-4.642v12.258h4.921c0.996,0,1.799-0.325,2.388-0.963
			c0.582-0.631,0.877-1.457,0.877-2.452c0-0.837-0.213-1.539-0.633-2.085C299.655,158.159,299.326,157.899,298.944,157.731z
			 M293.665,158.46h3.556c0.625,0,1.111,0.18,1.488,0.551c0.376,0.374,0.56,0.875,0.56,1.531c0,0.662-0.183,1.179-0.561,1.582
			c-0.369,0.395-0.852,0.588-1.471,0.588h-3.572V158.46z M293.665,153.05h3.292c0.643,0,1.128,0.176,1.484,0.54
			c0.359,0.367,0.533,0.849,0.533,1.473c0,0.644-0.171,1.171-0.508,1.564c-0.331,0.384-0.753,0.571-1.289,0.571h-3.512V153.05z"/>
		<rect x="302.249" y="151.752" fill="#2D5F8C" width="1.292" height="12.258"/>
		<polygon fill="#2D5F8C" points="307.105,151.752 305.814,151.752 305.814,164.01 313.031,164.01 313.031,162.677 307.105,162.677 
					"/>
		<rect x="314.37" y="151.752" fill="#2D5F8C" width="1.291" height="12.258"/>
		<path fill="#2D5F8C" d="M321.304,151.752l-4.676,12.258H318l1.217-3.204h5.225l1.202,3.204h1.372l-4.677-12.258H321.304z
			 M323.935,159.472h-4.211l2.105-5.571L323.935,159.472z"/>
		<path fill="#2D5F8C" d="M332.733,158.617c0.992,0,1.804-0.32,2.413-0.95c0.603-0.626,0.91-1.461,0.91-2.483
			s-0.306-1.857-0.91-2.482c-0.609-0.63-1.421-0.95-2.413-0.95h-4.746v12.258h1.292v-5.393h1.747l4.049,5.393h1.643l-4.079-5.393
			H332.733z M334.779,155.184c0,0.648-0.184,1.153-0.563,1.543c-0.376,0.387-0.861,0.575-1.483,0.575h-3.454v-4.216h3.454
			c0.624,0,1.108,0.185,1.484,0.565C334.596,154.037,334.779,154.538,334.779,155.184z"/>
		<rect x="337.79" y="151.752" fill="#2D5F8C" width="1.292" height="12.258"/>
		<path fill="#2D5F8C" d="M345.761,151.752h-1.037l-4.676,12.258h1.371l1.218-3.204h5.225l1.203,3.204h1.372L345.761,151.752z
			 M347.354,159.472h-4.21l2.105-5.571L347.354,159.472z"/>
	</g>
	<g>
		<polygon fill="#9B999E" points="40.14,92.511 95.928,114.174 95.928,129.269 40.14,115.465 		"/>
		<polygon fill="#FBE6C9" points="86.896,37.551 80.089,31.631 73.94,29.604 86.882,40.601 		"/>
		<polygon fill="#FAD9AC" points="93.52,50.273 72.519,33.028 65.679,30.942 93.49,53.281 		"/>
		<polygon fill="#F8CB8E" points="82.152,49.419 32.006,8.948 23.681,7.013 82.133,52.651 		"/>
		<polygon fill="#F6BD74" points="40.133,30.282 95.652,70.864 95.648,67.869 38.829,25.172 		"/>
		<polygon fill="#F4AF59" points="93.49,75.012 13.248,18.277 15.101,24.279 93.49,78.092 		"/>
		<polygon fill="#F1A139" points="40.133,50.112 40.133,62.573 95.935,95.544 95.935,85.082 		"/>
		<polygon fill="#C9A77E" points="40.133,70.003 95.928,100.668 95.928,110.334 40.133,86.675 		"/>
		<polygon fill="#C9A77E" points="40.133,50.093 11.944,90.072 11.944,98.746 40.133,62.573 		"/>
		<polygon fill="#9B999E" points="40.134,69.999 40.134,86.675 11.941,116.648 11.941,102.385 		"/>
		<polygon fill="#6C7C94" points="40.14,92.511 40.14,115.465 11.946,132.857 11.946,119.469 		"/>
		<polygon fill="#6C7C94" points="40.132,140.525 96.16,147.996 96.16,132.339 40.127,119.16 		"/>
		<polygon fill="#2D5F8C" points="40.132,166.526 96.165,163.849 96.165,150.163 40.132,142.536 		"/>
		<polygon fill="#2D5F8C" points="40.131,119.16 40.131,140.525 11.809,150.947 11.814,135.067 		"/>
		<polygon fill="#004572" points="40.13,142.536 11.813,152.628 11.813,165.382 40.13,166.526 		"/>
	</g>
</g>
<g>
</g>
<g>
</g>
<g>
</g>
<g>
</g>
<g>
</g>
<g>
</g>
<g>
</g>
<g>
</g>
<g>
</g>
<g>
</g>
<g>
</g>
<g>
</g>
<g>
</g>
<g>
</g>
<g>
</g>
</svg>
