<?xml version="1.0" encoding="iso-8859-1"?>
<!-- Generator: Adobe Illustrator 23.0.4, SVG Export Plug-In . SVG Version: 6.00 Build 0)  -->
<svg version="1.1" id="Layer_1" xmlns="http://www.w3.org/2000/svg" xmlns:xlink="http://www.w3.org/1999/xlink" x="0px" y="0px"
	 width="29.056px" height="51.2px" viewBox="0 0 29.056 51.2" enable-background="new 0 0 29.056 51.2" xml:space="preserve">
<g>
	<g>
		<g>
			<path fill="#FFFFFF" d="M18.633,3.124H10.3c-0.46,0-0.833,0.373-0.833,0.833S9.84,4.791,10.3,4.791h8.333
				c0.46,0,0.833-0.373,0.833-0.833C19.467,3.497,19.093,3.124,18.633,3.124z"/>
		</g>
	</g>
	<g>
		<g>
			<path fill="#FFFFFF" d="M24.467,3.124h-0.833c-0.46,0-0.833,0.373-0.833,0.833s0.373,0.833,0.833,0.833h0.833
				c0.46,0,0.833-0.373,0.833-0.833S24.926,3.124,24.467,3.124z"/>
		</g>
	</g>
	<g>
		<g>
			<path fill="#FFFFFF" d="M15.501,43.124h-2.069c-1.267,0-2.299,1.032-2.299,2.299v0.403c0,1.267,1.032,2.298,2.298,2.298H15.5
				c1.267,0,2.299-1.031,2.299-2.298v-0.403C17.8,44.156,16.768,43.124,15.501,43.124z M16.133,45.826
				c0,0.348-0.283,0.632-0.632,0.632h-2.069c-0.349,0-0.633-0.283-0.633-0.632v-0.403c0-0.349,0.283-0.633,0.633-0.633H15.5
				c0.349,0,0.633,0.283,0.633,0.633V45.826z"/>
		</g>
	</g>
	<g>
		<g>
			<path fill="#FFFFFF" d="M25.621,0.624H3.312C1.651,0.624,0.3,1.976,0.3,3.637v43.975c0,1.661,1.352,3.013,3.013,3.013h22.308
				c1.661,0,3.012-1.352,3.012-3.012V3.637C28.633,1.976,27.282,0.624,25.621,0.624z M26.967,47.612
				c0,0.742-0.603,1.346-1.345,1.346H3.312c-0.742,0-1.346-0.604-1.346-1.345V3.637c0-0.742,0.603-1.346,1.346-1.346H25.62
				c0.742,0,1.346,0.604,1.346,1.346L26.967,47.612L26.967,47.612z"/>
		</g>
	</g>
	<g>
		<g>
			<path fill="#FFFFFF" d="M27.8,5.624H1.133c-0.46,0-0.833,0.373-0.833,0.833v35c0,0.46,0.373,0.833,0.833,0.833H27.8
				c0.46,0,0.833-0.373,0.833-0.833v-35C28.633,5.997,28.26,5.624,27.8,5.624z M26.967,40.624h-25V7.291h25V40.624z"/>
		</g>
	</g>
</g>
</svg>
